# xmcd CD database file
#
# Track frame offsets:
#	150
#	19136
#	32591
#	49124
#	63450
#	76579
#	91429
#	106993
#	125163
#	143087
#	166891
#	181519
#	200838
#	216990
#
# Disc length: 3139 seconds
#
# Revision: 0
# Processed by: cddbd v1.5.2PL0 Copyright (c) Steve Scherf et al.
# Submitted via: CDex 1.51
#
DISCID=bd0c410e
DTITLE=Le Bardi Manchot - Rag it ! Au mandala (Toulouse) en avril 2014
DYEAR=2014
DGENRE=Jazz
TTITLE0=Egyptian Ella
TTITLE1=12th Street rag
TTITLE2=Lazy bones
TTITLE3=Weary blues
TTITLE4=Two nineteen blues
TTITLE5=At the jazz band ball
TTITLE6=Cocaine habit blues
TTITLE7=Call of the freak
TTITLE8=Heebie Jeebies
TTITLE9=Delta bound
TTITLE10=Canal street blues
TTITLE11=Careless love
TTITLE12=Some of these days
TTITLE13=Sidewalk blues
EXTD=YEAR: 2014
EXTT0=
EXTT1=
EXTT2=
EXTT3=
EXTT4=
EXTT5=
EXTT6=
EXTT7=
EXTT8=
EXTT9=
EXTT10=
EXTT11=
EXTT12=
EXTT13=
PLAYORDER=
